# xmcd CD database file
# Copyright (C) 1993-1998 Ti Kan
#
# Track frame offsets:
#	150
#	16104
#	33977
#	44198
#	61575
#	75875
#	90872
#	112179
#	124553
#	148195
#	166233
#	177559
#	192634
#	213143
#	227969
#
# Disc length: 3215 seconds
#
# Revision: 1
# Processed by: cddbd v1.4b41PL1 Copyright (c) Steve Scherf et al.
# Submitted via: CDValet v3.31 - Copyright (c) 1997 Greg Leichner
#
DISCID=c40c8d0f
DTITLE=Ray Fuller and the Blues Rockers - Pearlene
DYEAR=1900
DGENRE=
TTITLE0=Goin' Back Home
TTITLE1=Bayou Blue
TTITLE2=Pearlene
TTITLE3=Rockin' My Blues Away
TTITLE4=Cajun Girl
TTITLE5=Shake
TTITLE6=Feelin' Evil
TTITLE7=Hip Shakin' Mama
TTITLE8=Birds in the Sky
TTITLE9=Voodoo Mama
TTITLE10=Crazy in Love
TTITLE11=Down in New Orleans
TTITLE12=She's So Fine
TTITLE13=Long Dark Lonesome Road
TTITLE14=Wherever the Wind May Blow
EXTD=Oahu Records - 1997
EXTT0=
EXTT1=
EXTT2=
EXTT3=
EXTT4=
EXTT5=
EXTT6=
EXTT7=
EXTT8=
EXTT9=
EXTT10=
EXTT11=
EXTT12=
EXTT13=
EXTT14=
PLAYORDER=
